# This file uses meters as units for non-parametric coordinates.

mtllib State 6.mtl
g default
v 25.504089 -36.068233 -25.504089
v 0.000000 -36.068233 -36.068230
v -25.504089 -36.068233 -25.504089
v -36.068230 -36.068233 0.000000
v -25.504089 -36.068233 25.504089
v 0.000000 -36.068233 36.068233
v 25.504093 -36.068233 25.504093
v 36.068233 -36.068233 0.000000
v 0.000000 36.068233 0.000000
vt 0.676777 0.073223
vt 0.500000 0.000000
vt 0.323223 0.073223
vt 0.250000 0.250000
vt 0.323223 0.426777
vt 0.500000 0.500000
vt 0.676777 0.426777
vt 0.750000 0.250000
vt 0.250000 0.500000
vt 0.312500 0.500000
vt 0.375000 0.500000
vt 0.437500 0.500000
vt 0.500000 0.500000
vt 0.562500 0.500000
vt 0.625000 0.500000
vt 0.687500 0.500000
vt 0.750000 0.500000
vt 0.500000 1.000000
vn 0.000000 -1.000000 0.000000
vn 0.000000 -1.000000 0.000000
vn 0.000000 -1.000000 0.000000
vn 0.000000 -1.000000 0.000000
vn 0.000000 -1.000000 0.000000
vn 0.000000 -1.000000 0.000000
vn 0.000000 -1.000000 0.000000
vn 0.000000 -1.000000 0.000000
vn 0.347408 0.419358 -0.838717
vn 0.347408 0.419358 -0.838717
vn 0.347408 0.419358 -0.838717
vn -0.347408 0.419358 -0.838717
vn -0.347408 0.419358 -0.838717
vn -0.347408 0.419358 -0.838717
vn -0.838717 0.419358 -0.347408
vn -0.838717 0.419358 -0.347408
vn -0.838717 0.419358 -0.347408
vn -0.838717 0.419358 0.347408
vn -0.838717 0.419358 0.347408
vn -0.838717 0.419358 0.347408
vn -0.347408 0.419358 0.838717
vn -0.347408 0.419358 0.838717
vn -0.347408 0.419358 0.838717
vn 0.347408 0.419359 0.838717
vn 0.347408 0.419359 0.838717
vn 0.347408 0.419359 0.838717
vn 0.838717 0.419359 0.347408
vn 0.838717 0.419359 0.347408
vn 0.838717 0.419359 0.347408
vn 0.838717 0.419358 -0.347408
vn 0.838717 0.419359 -0.347408
vn 0.838717 0.419358 -0.347408
s off
g pCone1
usemtl initialShadingGroup
f 1/1/1 8/8/2 7/7/3 6/6/4 5/5/5 4/4/6 3/3/7 2/2/8
f 1/9/9 2/10/10 9/18/11
f 2/10/12 3/11/13 9/18/14
f 3/11/15 4/12/16 9/18/17
f 4/12/18 5/13/19 9/18/20
f 5/13/21 6/14/22 9/18/23
f 6/14/24 7/15/25 9/18/26
f 7/15/27 8/16/28 9/18/29
f 8/16/30 1/17/31 9/18/32
